# MagicaVoxel @ Ephtracy

# group
o 

# material
mtllib Cactus Prop-0.mtl
usemtl palette

# normals
vn -1 0 0
vn 1 0 0
vn 0 0 1
vn 0 0 -1
vn 0 -1 0
vn 0 1 0

# texcoords
vt 0.908203 0.5
vt 0.912109 0.5
vt 0.916016 0.5

# verts
v -0.6 0 0.6
v -0.6 0 0.5
v -0.6 0 0.3
v -0.6 0 0.2
v -0.6 0 0
v -0.6 0 -0.1
v -0.6 0 -0.3
v -0.6 0 -0.5
v -0.6 0.1 0.6
v -0.6 0.1 0.5
v -0.6 0.1 0.3
v -0.6 0.1 0.2
v -0.6 0.1 0
v -0.6 0.1 -0.1
v -0.6 0.1 -0.3
v -0.6 0.1 -0.5
v -0.5 0 0.8
v -0.5 0 0.6
v -0.5 0 0.5
v -0.5 0 0.4
v -0.5 0 0.3
v -0.5 0 -0.2
v -0.5 0 -0.3
v -0.5 0 -0.5
v -0.5 0 -0.6
v -0.5 0 -0.7
v -0.5 0.1 0.8
v -0.5 0.1 0.6
v -0.5 0.1 0.5
v -0.5 0.1 0.4
v -0.5 0.1 0.3
v -0.5 0.1 -0.2
v -0.5 0.1 -0.3
v -0.5 0.1 -0.5
v -0.5 0.1 -0.6
v -0.5 0.1 -0.7
v -0.5 0.2 -0.3
v -0.5 0.2 -0.5
v -0.4 0 -0.1
v -0.4 0 -0.2
v -0.4 0.1 0.5
v -0.4 0.1 0.4
v -0.4 0.1 0.3
v -0.4 0.1 0
v -0.4 0.1 -0.1
v -0.4 0.1 -0.2
v -0.4 0.1 -0.3
v -0.4 0.2 0.5
v -0.4 0.2 0.4
v -0.4 0.2 0.3
v -0.4 0.2 0
v -0.4 0.2 -0.1
v -0.4 0.2 -0.2
v -0.4 0.2 -0.3
v -0.3 0.2 -0.2
v -0.3 0.2 -0.3
v -0.3 0.3 -0.2
v -0.3 0.3 -0.3
v -0.1 0 0.7
v -0.1 0 0.6
v -0.1 0.1 0.7
v -0.1 0.1 0.6
v -5.96046e-08 0 -0.5
v -5.96046e-08 0 -0.6
v -5.96046e-08 0.1 -0.5
v -5.96046e-08 0.1 -0.6
v 0.2 0.2 0.5
v 0.2 0.2 0.4
v 0.2 0.3 0.5
v 0.2 0.3 0.4
v -0.4 0 0.8
v -0.4 0 0.7
v -0.4 0 -0.6
v -0.4 0 -0.7
v -0.4 0.1 0.8
v -0.4 0.1 0.7
v -0.4 0.1 -0.3
v -0.4 0.1 -0.4
v -0.4 0.1 -0.6
v -0.4 0.1 -0.7
v -0.4 0.2 -0.3
v -0.4 0.2 -0.4
v -0.3 0 0.7
v -0.3 0 0.6
v -0.3 0 -0.5
v -0.3 0 -0.6
v -0.3 0.1 0.7
v -0.3 0.1 0.6
v -0.3 0.1 -0.4
v -0.3 0.1 -0.5
v -0.3 0.1 -0.6
v -0.3 0.2 -0.4
v -0.3 0.2 -0.5
v -0.2 0.2 -0.2
v -0.2 0.2 -0.3
v -0.2 0.3 -0.2
v -0.2 0.3 -0.3
v 0.2 0 0.7
v 0.2 0 0.6
v 0.2 0 -0.5
v 0.2 0 -0.6
v 0.2 0.1 0.7
v 0.2 0.1 0.6
v 0.2 0.1 -0.5
v 0.2 0.1 -0.6
v 0.3 0 0.6
v 0.3 0 0.5
v 0.3 0.1 0.6
v 0.3 0.1 0.5
v 0.3 0.1 0.3
v 0.3 0.1 0.2
v 0.3 0.1 0.1
v 0.3 0.1 0
v 0.3 0.1 -0.1
v 0.3 0.1 -0.3
v 0.3 0.2 0.4
v 0.3 0.2 0.1
v 0.3 0.2 0
v 0.3 0.2 -0.1
v 0.3 0.2 -0.3
v 0.3 0.3 0.5
v 0.3 0.3 0.4
v 0.4 0 0.5
v 0.4 0 0.4
v 0.4 0 0.1
v 0.4 0 0
v 0.4 0 -0.4
v 0.4 0 -0.5
v 0.4 0.1 0.5
v 0.4 0.1 0.4
v 0.4 0.1 0.1
v 0.4 0.1 0
v 0.4 0.1 -0.4
v 0.4 0.1 -0.5
v 0.5 0 0.4
v 0.5 0 0.3
v 0.5 0 0
v 0.5 0 -0.1
v 0.5 0 -0.2
v 0.5 0 -0.3
v 0.5 0 -0.4
v 0.5 0.1 0.4
v 0.5 0.1 0.3
v 0.5 0.1 0
v 0.5 0.1 -0.1
v 0.5 0.1 -0.2
v 0.5 0.1 -0.3
v 0.5 0.1 -0.4
v 0.6 0 0.3
v 0.6 0 0.2
v 0.6 0 0.1
v 0.6 0 -0.1
v 0.6 0 -0.2
v 0.6 0.1 0.3
v 0.6 0.1 0.2
v 0.6 0.1 0.1
v 0.6 0.1 -0.1
v 0.6 0.1 -0.2
v -0.5 0 0.8
v -0.5 0.1 0.8
v -0.4 0 0.8
v -0.4 0.1 0.8
v -0.4 0 0.7
v -0.4 0.1 0.7
v -0.3 0 0.7
v -0.3 0.1 0.7
v -0.1 0 0.7
v -0.1 0.1 0.7
v 0.2 0 0.7
v 0.2 0.1 0.7
v -0.6 0 0.6
v -0.6 0.1 0.6
v -0.5 0 0.6
v -0.5 0.1 0.6
v -0.3 0 0.6
v -0.3 0.1 0.6
v -0.2 0 0.6
v -0.2 0.1 0.6
v -0.1 0 0.6
v -0.1 0.1 0.6
v 0.2 0 0.6
v 0.2 0.1 0.6
v 0.3 0 0.6
v 0.3 0.1 0.6
v -0.4 0.1 0.5
v -0.4 0.2 0.5
v -0.3 0.1 0.5
v -0.3 0.2 0.5
v -0.2 0.1 0.5
v -0.2 0.2 0.5
v -0.1 0.1 0.5
v -5.96046e-08 0.1 0.5
v 0.1 0.1 0.5
v 0.1 0.2 0.5
v 0.2 0.1 0.5
v 0.2 0.2 0.5
v 0.2 0.3 0.5
v 0.3 0 0.5
v 0.3 0.1 0.5
v 0.3 0.3 0.5
v 0.4 0 0.5
v 0.4 0.1 0.5
v 0.4 0 0.4
v 0.4 0.1 0.4
v 0.5 0 0.4
v 0.5 0.1 0.4
v -0.6 0 0.3
v -0.6 0.1 0.3
v -0.5 0 0.3
v -0.5 0.1 0.3
v 0.5 0 0.3
v 0.5 0.1 0.3
v 0.6 0 0.3
v 0.6 0.1 0.3
v 0.4 0 0
v 0.4 0.1 0
v 0.5 0 0
v 0.5 0.1 0
v 0.5 0 -0.1
v 0.5 0.1 -0.1
v 0.6 0 -0.1
v 0.6 0.1 -0.1
v -0.5 0 -0.2
v -0.5 0.1 -0.2
v -0.4 0 -0.2
v -0.4 0.1 -0.2
v -0.3 0.2 -0.2
v -0.3 0.3 -0.2
v -0.2 0.2 -0.2
v -0.2 0.3 -0.2
v -0.6 0 -0.3
v -0.6 0.1 -0.3
v -0.5 0 -0.3
v -0.5 0.1 -0.3
v -0.5 0.2 -0.3
v -0.4 0.1 -0.3
v -0.4 0.2 -0.3
v -0.4 0.1 -0.4
v -0.4 0.2 -0.4
v -0.3 0.1 -0.4
v -0.3 0.2 -0.4
v -0.6 0 0.5
v -0.6 0.1 0.5
v -0.5 0 0.5
v -0.5 0.1 0.5
v 0.2 0.2 0.4
v 0.2 0.3 0.4
v 0.3 0.2 0.4
v 0.3 0.3 0.4
v 0.4 0 0.1
v 0.4 0.1 0.1
v 0.5 0 0.1
v 0.5 0.1 0.1
v 0.6 0 0.1
v 0.6 0.1 0.1
v -0.6 0 -0.1
v -0.6 0.1 -0.1
v -0.4 0 -0.1
v -0.4 0.1 -0.1
v 0.5 0 -0.2
v 0.5 0.1 -0.2
v 0.6 0 -0.2
v 0.6 0.1 -0.2
v -0.4 0.1 -0.3
v -0.4 0.2 -0.3
v -0.3 0.1 -0.3
v -0.3 0.2 -0.3
v -0.3 0.3 -0.3
v -0.2 0.2 -0.3
v -0.2 0.3 -0.3
v -0.1 0.1 -0.3
v -0.1 0.2 -0.3
v -5.96046e-08 0.1 -0.3
v -5.96046e-08 0.2 -0.3
v 0.1 0.1 -0.3
v 0.1 0.2 -0.3
v 0.2 0.1 -0.3
v 0.2 0.2 -0.3
v 0.3 0.1 -0.3
v 0.3 0.2 -0.3
v 0.4 0 -0.4
v 0.4 0.1 -0.4
v 0.5 0 -0.4
v 0.5 0.1 -0.4
v -0.6 0 -0.5
v -0.6 0.1 -0.5
v -0.5 0 -0.5
v -0.5 0.1 -0.5
v -0.5 0.2 -0.5
v -0.3 0 -0.5
v -0.3 0.1 -0.5
v -0.3 0.2 -0.5
v -0.2 0 -0.5
v -0.2 0.1 -0.5
v -5.96046e-08 0 -0.5
v -5.96046e-08 0.1 -0.5
v 0.2 0 -0.5
v 0.2 0.1 -0.5
v 0.4 0 -0.5
v 0.4 0.1 -0.5
v -0.4 0 -0.6
v -0.4 0.1 -0.6
v -0.3 0 -0.6
v -0.3 0.1 -0.6
v -5.96046e-08 0 -0.6
v -5.96046e-08 0.1 -0.6
v 0.1 0 -0.6
v 0.1 0.1 -0.6
v 0.2 0 -0.6
v 0.2 0.1 -0.6
v -0.5 0 -0.7
v -0.5 0.1 -0.7
v -0.4 0 -0.7
v -0.4 0.1 -0.7
v -0.5 0 0.8
v -0.4 0 0.8
v -0.4 0 0.7
v -0.3 0 0.7
v -0.1 0 0.7
v 0.2 0 0.7
v -0.6 0 0.6
v -0.5 0 0.6
v -0.3 0 0.6
v -0.2 0 0.6
v -0.1 0 0.6
v -5.96046e-08 0 0.6
v 0.2 0 0.6
v 0.3 0 0.6
v -0.6 0 0.5
v -0.5 0 0.5
v -0.3 0 0.5
v -0.2 0 0.5
v -0.1 0 0.5
v -5.96046e-08 0 0.5
v 0.1 0 0.5
v 0.2 0 0.5
v 0.3 0 0.5
v 0.4 0 0.5
v -0.5 0 0.4
v -0.4 0 0.4
v -0.2 0 0.4
v -0.1 0 0.4
v -5.96046e-08 0 0.4
v 0.1 0 0.4
v 0.2 0 0.4
v 0.4 0 0.4
v 0.5 0 0.4
v -0.6 0 0.3
v -0.5 0 0.3
v 0.2 0 0.3
v 0.3 0 0.3
v 0.4 0 0.3
v 0.5 0 0.3
v 0.6 0 0.3
v -0.6 0 0.2
v -0.5 0 0.2
v -0.1 0 0.2
v -5.96046e-08 0 0.2
v 0.2 0 0.2
v 0.3 0 0.2
v 0.4 0 0.2
v 0.5 0 0.2
v 0.6 0 0.2
v -0.4 0 0.1
v -0.2 0 0.1
v 0.2 0 0.1
v 0.3 0 0.1
v 0.4 0 0.1
v 0.5 0 0.1
v 0.6 0 0.1
v -0.6 0 0
v -0.5 0 0
v -0.4 0 0
v -0.2 0 0
v -0.1 0 0
v -5.96046e-08 0 0
v 0.1 0 0
v 0.2 0 0
v 0.3 0 0
v 0.4 0 0
v 0.5 0 0
v -0.6 0 -0.1
v -0.4 0 -0.1
v -0.3 0 -0.1
v -0.2 0 -0.1
v 0.1 0 -0.1
v 0.2 0 -0.1
v 0.5 0 -0.1
v 0.6 0 -0.1
v -0.5 0 -0.2
v -0.4 0 -0.2
v -0.3 0 -0.2
v -0.2 0 -0.2
v -0.1 0 -0.2
v -5.96046e-08 0 -0.2
v 0.5 0 -0.2
v 0.6 0 -0.2
v -0.6 0 -0.3
v -0.5 0 -0.3
v 0.4 0 -0.3
v 0.5 0 -0.3
v -0.4 0 -0.4
v -0.3 0 -0.4
v -0.2 0 -0.4
v 0.1 0 -0.4
v 0.2 0 -0.4
v 0.4 0 -0.4
v 0.5 0 -0.4
v -0.6 0 -0.5
v -0.5 0 -0.5
v -0.3 0 -0.5
v -0.2 0 -0.5
v -5.96046e-08 0 -0.5
v 0.2 0 -0.5
v 0.4 0 -0.5
v -0.5 0 -0.6
v -0.4 0 -0.6
v -0.3 0 -0.6
v -5.96046e-08 0 -0.6
v 0.1 0 -0.6
v 0.2 0 -0.6
v -0.5 0 -0.7
v -0.4 0 -0.7
v -0.5 0.1 0.8
v -0.4 0.1 0.8
v -0.4 0.1 0.7
v -0.3 0.1 0.7
v -0.1 0.1 0.7
v 0.2 0.1 0.7
v -0.6 0.1 0.6
v -0.5 0.1 0.6
v -0.3 0.1 0.6
v -0.2 0.1 0.6
v -0.1 0.1 0.6
v -5.96046e-08 0.1 0.6
v 0.2 0.1 0.6
v 0.3 0.1 0.6
v -0.6 0.1 0.5
v -0.5 0.1 0.5
v -0.4 0.1 0.5
v -0.3 0.1 0.5
v -0.2 0.1 0.5
v -0.1 0.1 0.5
v -5.96046e-08 0.1 0.5
v 0.1 0.1 0.5
v 0.2 0.1 0.5
v 0.3 0.1 0.5
v 0.4 0.1 0.5
v -0.5 0.1 0.4
v -0.4 0.1 0.4
v 0.4 0.1 0.4
v 0.5 0.1 0.4
v -0.6 0.1 0.3
v -0.5 0.1 0.3
v -0.4 0.1 0.3
v 0.3 0.1 0.3
v 0.4 0.1 0.3
v 0.5 0.1 0.3
v 0.6 0.1 0.3
v -0.6 0.1 0.2
v -0.5 0.1 0.2
v 0.3 0.1 0.2
v 0.4 0.1 0.2
v 0.5 0.1 0.2
v 0.6 0.1 0.2
v 0.3 0.1 0.1
v 0.4 0.1 0.1
v 0.5 0.1 0.1
v 0.6 0.1 0.1
v -0.6 0.1 0
v -0.5 0.1 0
v -0.4 0.1 0
v 0.3 0.1 0
v 0.4 0.1 0
v 0.5 0.1 0
v -0.6 0.1 -0.1
v -0.4 0.1 -0.1
v 0.3 0.1 -0.1
v 0.5 0.1 -0.1
v 0.6 0.1 -0.1
v -0.5 0.1 -0.2
v -0.4 0.1 -0.2
v 0.5 0.1 -0.2
v 0.6 0.1 -0.2
v -0.6 0.1 -0.3
v -0.5 0.1 -0.3
v -0.4 0.1 -0.3
v -0.3 0.1 -0.3
v -0.1 0.1 -0.3
v -5.96046e-08 0.1 -0.3
v 0.1 0.1 -0.3
v 0.2 0.1 -0.3
v 0.3 0.1 -0.3
v 0.4 0.1 -0.3
v 0.5 0.1 -0.3
v -0.4 0.1 -0.4
v -0.3 0.1 -0.4
v -0.2 0.1 -0.4
v 0.1 0.1 -0.4
v 0.2 0.1 -0.4
v 0.4 0.1 -0.4
v 0.5 0.1 -0.4
v -0.6 0.1 -0.5
v -0.5 0.1 -0.5
v -0.3 0.1 -0.5
v -0.2 0.1 -0.5
v -5.96046e-08 0.1 -0.5
v 0.2 0.1 -0.5
v 0.4 0.1 -0.5
v -0.5 0.1 -0.6
v -0.4 0.1 -0.6
v -0.3 0.1 -0.6
v -5.96046e-08 0.1 -0.6
v 0.1 0.1 -0.6
v 0.2 0.1 -0.6
v -0.5 0.1 -0.7
v -0.4 0.1 -0.7
v -0.4 0.2 0.5
v -0.3 0.2 0.5
v -0.2 0.2 0.5
v 0.1 0.2 0.5
v 0.2 0.2 0.5
v -0.4 0.2 0.4
v -0.3 0.2 0.4
v -0.2 0.2 0.4
v -0.1 0.2 0.4
v -5.96046e-08 0.2 0.4
v 0.1 0.2 0.4
v 0.2 0.2 0.4
v 0.3 0.2 0.4
v -0.4 0.2 0.3
v -0.3 0.2 0.3
v -0.2 0.2 0.3
v -0.1 0.2 0.3
v -5.96046e-08 0.2 0.3
v 0.1 0.2 0.3
v -0.3 0.2 0.2
v -0.2 0.2 0.2
v -5.96046e-08 0.2 0.2
v 0.1 0.2 0.2
v -0.3 0.2 0.1
v -0.2 0.2 0.1
v -0.1 0.2 0.1
v -5.96046e-08 0.2 0.1
v 0.1 0.2 0.1
v 0.2 0.2 0.1
v 0.3 0.2 0.1
v -0.4 0.2 0
v -0.3 0.2 0
v -0.1 0.2 0
v -5.96046e-08 0.2 0
v 0.1 0.2 0
v 0.2 0.2 0
v 0.3 0.2 0
v -0.4 0.2 -0.1
v -0.3 0.2 -0.1
v -5.96046e-08 0.2 -0.1
v 0.1 0.2 -0.1
v 0.3 0.2 -0.1
v -0.4 0.2 -0.2
v -0.3 0.2 -0.2
v -0.2 0.2 -0.2
v -0.1 0.2 -0.2
v -5.96046e-08 0.2 -0.2
v 0.1 0.2 -0.2
v 0.2 0.2 -0.2
v -0.5 0.2 -0.3
v -0.4 0.2 -0.3
v -0.3 0.2 -0.3
v -0.2 0.2 -0.3
v -0.1 0.2 -0.3
v -5.96046e-08 0.2 -0.3
v 0.1 0.2 -0.3
v 0.2 0.2 -0.3
v 0.3 0.2 -0.3
v -0.4 0.2 -0.4
v -0.3 0.2 -0.4
v -0.5 0.2 -0.5
v -0.3 0.2 -0.5
v 0.2 0.3 0.5
v 0.3 0.3 0.5
v 0.2 0.3 0.4
v 0.3 0.3 0.4
v -0.3 0.3 -0.2
v -0.2 0.3 -0.2
v -0.3 0.3 -0.3
v -0.2 0.3 -0.3

# faces
f 9/1/1 2/1/1 1/1/1
f 10/1/1 2/1/1 9/1/1
f 11/2/1 4/2/1 3/2/1
f 12/1/1 5/1/1 4/1/1
f 12/2/1 4/2/1 11/2/1
f 13/2/1 6/2/1 5/2/1
f 13/1/1 5/1/1 12/1/1
f 14/2/1 6/2/1 13/2/1
f 15/1/1 8/1/1 7/1/1
f 16/1/1 8/1/1 15/1/1
f 27/1/1 18/1/1 17/1/1
f 28/1/1 18/1/1 27/1/1
f 29/1/1 20/1/1 19/1/1
f 30/2/1 21/2/1 20/2/1
f 30/1/1 20/1/1 29/1/1
f 31/2/1 21/2/1 30/2/1
f 32/1/1 23/1/1 22/1/1
f 33/1/1 23/1/1 32/1/1
f 34/1/1 25/1/1 24/1/1
f 35/2/1 26/2/1 25/2/1
f 35/1/1 25/1/1 34/1/1
f 36/2/1 26/2/1 35/2/1
f 37/1/1 34/1/1 33/1/1
f 38/1/1 34/1/1 37/1/1
f 45/1/1 40/1/1 39/1/1
f 46/1/1 40/1/1 45/1/1
f 48/1/1 42/1/1 41/1/1
f 49/3/1 43/3/1 42/3/1
f 49/1/1 42/1/1 48/1/1
f 50/1/1 44/1/1 43/1/1
f 50/3/1 43/3/1 49/3/1
f 51/3/1 45/3/1 44/3/1
f 51/1/1 44/1/1 50/1/1
f 52/2/1 46/2/1 45/2/1
f 52/3/1 45/3/1 51/3/1
f 53/1/1 47/1/1 46/1/1
f 53/2/1 46/2/1 52/2/1
f 54/1/1 47/1/1 53/1/1
f 57/1/1 56/1/1 55/1/1
f 58/1/1 56/1/1 57/1/1
f 61/1/1 60/1/1 59/1/1
f 62/1/1 60/1/1 61/1/1
f 65/1/1 64/1/1 63/1/1
f 66/1/1 64/1/1 65/1/1
f 69/1/1 68/1/1 67/1/1
f 70/1/1 68/1/1 69/1/1
f 71/1/2 72/1/2 75/1/2
f 75/1/2 72/1/2 76/1/2
f 73/2/2 74/2/2 79/2/2
f 79/2/2 74/2/2 80/2/2
f 77/1/2 78/1/2 81/1/2
f 81/1/2 78/1/2 82/1/2
f 83/1/2 84/1/2 87/1/2
f 87/1/2 84/1/2 88/1/2
f 85/1/2 86/1/2 90/1/2
f 90/1/2 86/1/2 91/1/2
f 89/1/2 90/1/2 92/1/2
f 92/1/2 90/1/2 93/1/2
f 94/1/2 95/1/2 96/1/2
f 96/1/2 95/1/2 97/1/2
f 98/1/2 99/1/2 102/1/2
f 102/1/2 99/1/2 103/1/2
f 100/2/2 101/2/2 104/2/2
f 104/2/2 101/2/2 105/2/2
f 106/2/2 107/2/2 108/2/2
f 108/2/2 107/2/2 109/2/2
f 109/1/2 110/1/2 116/1/2
f 110/1/2 111/1/2 116/1/2
f 111/1/2 112/1/2 116/1/2
f 112/3/2 113/3/2 117/3/2
f 116/1/2 112/1/2 117/1/2
f 113/1/2 114/1/2 118/1/2
f 117/3/2 113/3/2 118/3/2
f 114/2/2 115/2/2 119/2/2
f 118/1/2 114/1/2 119/1/2
f 119/2/2 115/2/2 120/2/2
f 109/1/2 116/1/2 121/1/2
f 121/1/2 116/1/2 122/1/2
f 123/1/2 124/1/2 129/1/2
f 129/1/2 124/1/2 130/1/2
f 125/1/2 126/1/2 131/1/2
f 131/1/2 126/1/2 132/1/2
f 127/1/2 128/1/2 133/1/2
f 133/1/2 128/1/2 134/1/2
f 135/1/2 136/1/2 142/1/2
f 142/1/2 136/1/2 143/1/2
f 137/1/2 138/1/2 144/1/2
f 144/1/2 138/1/2 145/1/2
f 139/1/2 140/1/2 146/1/2
f 140/3/2 141/3/2 147/3/2
f 146/1/2 140/1/2 147/1/2
f 147/3/2 141/3/2 148/3/2
f 149/3/2 150/3/2 154/3/2
f 150/2/2 151/2/2 155/2/2
f 154/3/2 150/3/2 155/3/2
f 155/2/2 151/2/2 156/2/2
f 152/2/2 153/2/2 157/2/2
f 157/2/2 153/2/2 158/2/2
f 161/1/3 160/1/3 159/1/3
f 162/1/3 160/1/3 161/1/3
f 165/1/3 164/1/3 163/1/3
f 166/1/3 164/1/3 165/1/3
f 169/1/3 168/1/3 167/1/3
f 170/1/3 168/1/3 169/1/3
f 173/1/3 172/1/3 171/1/3
f 174/1/3 172/1/3 173/1/3
f 177/2/3 176/2/3 175/2/3
f 178/2/3 176/2/3 177/2/3
f 179/1/3 178/1/3 177/1/3
f 180/1/3 178/1/3 179/1/3
f 183/2/3 182/2/3 181/2/3
f 184/2/3 182/2/3 183/2/3
f 187/1/3 186/1/3 185/1/3
f 188/1/3 186/1/3 187/1/3
f 189/2/3 188/2/3 187/2/3
f 190/2/3 188/2/3 189/2/3
f 191/1/3 190/1/3 189/1/3
f 192/1/3 190/1/3 191/1/3
f 193/1/3 190/1/3 192/1/3
f 194/1/3 190/1/3 193/1/3
f 195/2/3 194/2/3 193/2/3
f 196/2/3 194/2/3 195/2/3
f 199/1/3 196/1/3 195/1/3
f 199/1/3 197/1/3 196/1/3
f 200/1/3 197/1/3 199/1/3
f 201/1/3 199/1/3 198/1/3
f 202/1/3 199/1/3 201/1/3
f 205/1/3 204/1/3 203/1/3
f 206/1/3 204/1/3 205/1/3
f 209/2/3 208/2/3 207/2/3
f 210/2/3 208/2/3 209/2/3
f 213/3/3 212/3/3 211/3/3
f 214/3/3 212/3/3 213/3/3
f 217/1/3 216/1/3 215/1/3
f 218/1/3 216/1/3 217/1/3
f 221/2/3 220/2/3 219/2/3
f 222/2/3 220/2/3 221/2/3
f 225/1/3 224/1/3 223/1/3
f 226/1/3 224/1/3 225/1/3
f 229/1/3 228/1/3 227/1/3
f 230/1/3 228/1/3 229/1/3
f 233/1/3 232/1/3 231/1/3
f 234/1/3 232/1/3 233/1/3
f 236/1/3 235/1/3 234/1/3
f 237/1/3 235/1/3 236/1/3
f 240/1/3 239/1/3 238/1/3
f 241/1/3 239/1/3 240/1/3
f 242/1/4 243/1/4 244/1/4
f 244/1/4 243/1/4 245/1/4
f 246/1/4 247/1/4 248/1/4
f 248/1/4 247/1/4 249/1/4
f 250/1/4 251/1/4 252/1/4
f 252/1/4 251/1/4 253/1/4
f 252/2/4 253/2/4 254/2/4
f 254/2/4 253/2/4 255/2/4
f 256/2/4 257/2/4 258/2/4
f 258/2/4 257/2/4 259/2/4
f 260/2/4 261/2/4 262/2/4
f 262/2/4 261/2/4 263/2/4
f 264/1/4 265/1/4 266/1/4
f 266/1/4 265/1/4 267/1/4
f 266/1/4 267/1/4 269/1/4
f 267/1/4 268/1/4 269/1/4
f 269/1/4 268/1/4 270/1/4
f 266/1/4 269/1/4 271/1/4
f 271/1/4 269/1/4 272/1/4
f 271/2/4 272/2/4 273/2/4
f 273/2/4 272/2/4 274/2/4
f 273/1/4 274/1/4 275/1/4
f 275/1/4 274/1/4 276/1/4
f 275/3/4 276/3/4 277/3/4
f 277/3/4 276/3/4 278/3/4
f 277/2/4 278/2/4 279/2/4
f 279/2/4 278/2/4 280/2/4
f 281/3/4 282/3/4 283/3/4
f 283/3/4 282/3/4 284/3/4
f 285/1/4 286/1/4 287/1/4
f 287/1/4 286/1/4 288/1/4
f 288/1/4 289/1/4 291/1/4
f 291/1/4 289/1/4 292/1/4
f 290/2/4 291/2/4 293/2/4
f 293/2/4 291/2/4 294/2/4
f 293/1/4 294/1/4 295/1/4
f 295/1/4 294/1/4 296/1/4
f 297/1/4 298/1/4 299/1/4
f 299/1/4 298/1/4 300/1/4
f 301/1/4 302/1/4 303/1/4
f 303/1/4 302/1/4 304/1/4
f 305/1/4 306/1/4 307/1/4
f 307/1/4 306/1/4 308/1/4
f 307/2/4 308/2/4 309/2/4
f 309/2/4 308/2/4 310/2/4
f 311/2/4 312/2/4 313/2/4
f 313/2/4 312/2/4 314/2/4
f 317/1/5 316/1/5 315/1/5
f 322/1/5 317/1/5 315/1/5
f 322/1/5 318/1/5 317/1/5
f 323/1/5 318/1/5 322/1/5
f 325/1/5 320/1/5 319/1/5
f 326/1/5 320/1/5 325/1/5
f 327/1/5 320/1/5 326/1/5
f 329/1/5 322/1/5 321/1/5
f 329/1/5 323/1/5 322/1/5
f 330/1/5 323/1/5 329/1/5
f 331/2/5 324/2/5 323/2/5
f 331/1/5 323/1/5 330/1/5
f 332/1/5 325/1/5 324/1/5
f 332/2/5 324/2/5 331/2/5
f 333/2/5 326/2/5 325/2/5
f 333/1/5 325/1/5 332/1/5
f 334/1/5 327/1/5 326/1/5
f 334/2/5 326/2/5 333/2/5
f 335/1/5 327/1/5 334/1/5
f 336/2/5 328/2/5 327/2/5
f 336/1/5 327/1/5 335/1/5
f 337/2/5 328/2/5 336/2/5
f 339/1/5 331/1/5 330/1/5
f 339/1/5 332/1/5 331/1/5
f 340/1/5 332/1/5 339/1/5
f 341/2/5 333/2/5 332/2/5
f 341/1/5 332/1/5 340/1/5
f 342/1/5 335/1/5 334/1/5
f 342/2/5 333/2/5 341/2/5
f 342/1/5 334/1/5 333/1/5
f 343/1/5 335/1/5 342/1/5
f 344/2/5 337/2/5 336/2/5
f 344/1/5 335/1/5 343/1/5
f 344/2/5 336/2/5 335/2/5
f 345/2/5 337/2/5 344/2/5
f 346/1/5 338/1/5 337/1/5
f 349/2/5 340/2/5 339/2/5
f 350/2/5 337/2/5 345/2/5
f 350/1/5 344/1/5 343/1/5
f 350/1/5 345/1/5 344/1/5
f 351/1/5 347/1/5 346/1/5
f 351/2/5 337/2/5 350/2/5
f 351/1/5 346/1/5 337/1/5
f 352/1/5 347/1/5 351/1/5
f 353/1/5 347/1/5 352/1/5
f 355/2/5 349/2/5 348/2/5
f 356/2/5 340/2/5 349/2/5
f 356/2/5 349/2/5 355/2/5
f 357/1/5 341/1/5 340/1/5
f 357/2/5 343/2/5 342/2/5
f 357/1/5 342/1/5 341/1/5
f 358/1/5 350/1/5 343/1/5
f 358/2/5 343/2/5 357/2/5
f 359/3/5 351/3/5 350/3/5
f 359/1/5 350/1/5 358/1/5
f 360/2/5 352/2/5 351/2/5
f 360/3/5 351/3/5 359/3/5
f 361/1/5 353/1/5 352/1/5
f 361/2/5 352/2/5 360/2/5
f 362/3/5 354/3/5 353/3/5
f 362/1/5 353/1/5 361/1/5
f 363/3/5 354/3/5 362/3/5
f 364/1/5 361/1/5 360/1/5
f 364/2/5 340/2/5 356/2/5
f 364/1/5 357/1/5 340/1/5
f 364/1/5 362/1/5 361/1/5
f 364/1/5 359/1/5 358/1/5
f 364/1/5 358/1/5 357/1/5
f 364/1/5 360/1/5 359/1/5
f 365/1/5 362/1/5 364/1/5
f 366/1/5 362/1/5 365/1/5
f 367/1/5 362/1/5 366/1/5
f 368/1/5 362/1/5 367/1/5
f 369/2/5 363/2/5 362/2/5
f 369/1/5 362/1/5 368/1/5
f 370/2/5 363/2/5 369/2/5
f 371/1/5 356/1/5 355/1/5
f 372/2/5 364/2/5 356/2/5
f 372/1/5 356/1/5 371/1/5
f 372/2/5 365/2/5 364/2/5
f 373/2/5 365/2/5 372/2/5
f 374/1/5 366/1/5 365/1/5
f 374/2/5 365/2/5 373/2/5
f 375/1/5 366/1/5 374/1/5
f 376/1/5 366/1/5 375/1/5
f 377/1/5 366/1/5 376/1/5
f 378/2/5 367/2/5 366/2/5
f 378/1/5 366/1/5 377/1/5
f 379/1/5 368/1/5 367/1/5
f 379/2/5 367/2/5 378/2/5
f 380/1/5 368/1/5 379/1/5
f 382/2/5 373/2/5 372/2/5
f 382/2/5 372/2/5 371/2/5
f 383/1/5 374/1/5 373/1/5
f 383/2/5 373/2/5 382/2/5
f 383/1/5 375/1/5 374/1/5
f 384/1/5 375/1/5 383/1/5
f 385/1/5 375/1/5 384/1/5
f 386/2/5 378/2/5 377/2/5
f 386/1/5 377/1/5 376/1/5
f 387/1/5 381/1/5 380/1/5
f 387/2/5 378/2/5 386/2/5
f 387/1/5 380/1/5 379/1/5
f 387/1/5 379/1/5 378/1/5
f 388/1/5 381/1/5 387/1/5
f 391/1/5 384/1/5 383/1/5
f 392/2/5 385/2/5 384/2/5
f 392/1/5 384/1/5 391/1/5
f 393/1/5 375/1/5 385/1/5
f 393/2/5 385/2/5 392/2/5
f 394/3/5 376/3/5 375/3/5
f 394/1/5 375/1/5 393/1/5
f 395/1/5 386/1/5 376/1/5
f 395/3/5 376/3/5 394/3/5
f 395/1/5 388/1/5 387/1/5
f 395/1/5 387/1/5 386/1/5
f 396/2/5 389/2/5 388/2/5
f 396/1/5 388/1/5 395/1/5
f 397/2/5 389/2/5 396/2/5
f 399/1/5 391/1/5 390/1/5
f 400/1/5 394/1/5 393/1/5
f 400/1/5 395/1/5 394/1/5
f 400/1/5 393/1/5 392/1/5
f 400/1/5 396/1/5 395/1/5
f 401/1/5 396/1/5 400/1/5
f 402/3/5 392/3/5 391/3/5
f 402/1/5 399/1/5 398/1/5
f 402/1/5 391/1/5 399/1/5
f 403/1/5 400/1/5 392/1/5
f 403/3/5 392/3/5 402/3/5
f 404/1/5 400/1/5 403/1/5
f 405/1/5 400/1/5 404/1/5
f 406/1/5 400/1/5 405/1/5
f 407/3/5 401/3/5 400/3/5
f 407/1/5 400/1/5 406/1/5
f 408/3/5 401/3/5 407/3/5
f 409/1/5 402/1/5 398/1/5
f 409/1/5 403/1/5 402/1/5
f 410/1/5 403/1/5 409/1/5
f 411/2/5 404/2/5 403/2/5
f 411/1/5 403/1/5 410/1/5
f 412/1/5 405/1/5 404/1/5
f 412/2/5 404/2/5 411/2/5
f 413/1/5 405/1/5 412/1/5
f 414/2/5 406/2/5 405/2/5
f 414/1/5 407/1/5 406/1/5
f 415/1/5 407/1/5 414/1/5
f 416/1/5 411/1/5 410/1/5
f 417/1/5 411/1/5 416/1/5
f 418/1/5 411/1/5 417/1/5
f 419/1/5 405/1/5 413/1/5
f 420/2/5 414/2/5 405/2/5
f 420/1/5 405/1/5 419/1/5
f 421/2/5 414/2/5 420/2/5
f 422/2/5 417/2/5 416/2/5
f 423/2/5 417/2/5 422/2/5
f 424/1/6 425/1/6 426/1/6
f 424/1/6 426/1/6 431/1/6
f 426/1/6 427/1/6 431/1/6
f 431/1/6 427/1/6 432/1/6
f 428/1/6 429/1/6 434/1/6
f 434/1/6 429/1/6 435/1/6
f 435/1/6 429/1/6 436/1/6
f 430/1/6 431/1/6 438/1/6
f 431/1/6 432/1/6 438/1/6
f 438/1/6 432/1/6 439/1/6
f 439/1/6 432/1/6 440/1/6
f 432/2/6 433/2/6 441/2/6
f 440/1/6 432/1/6 441/1/6
f 433/1/6 434/1/6 442/1/6
f 441/2/6 433/2/6 442/2/6
f 434/2/6 435/2/6 443/2/6
f 442/1/6 434/1/6 443/1/6
f 435/1/6 436/1/6 444/1/6
f 443/2/6 435/2/6 444/2/6
f 444/1/6 436/1/6 445/1/6
f 436/2/6 437/2/6 446/2/6
f 445/1/6 436/1/6 446/1/6
f 446/2/6 437/2/6 447/2/6
f 439/1/6 440/1/6 449/1/6
f 449/1/6 440/1/6 450/1/6
f 447/1/6 448/1/6 451/1/6
f 449/2/6 450/2/6 454/2/6
f 454/2/6 450/2/6 455/2/6
f 451/1/6 452/1/6 456/1/6
f 447/1/6 451/1/6 456/1/6
f 456/1/6 452/1/6 457/1/6
f 457/1/6 452/1/6 458/1/6
f 454/2/6 455/2/6 460/2/6
f 453/2/6 454/2/6 460/2/6
f 460/2/6 455/2/6 461/2/6
f 456/2/6 457/2/6 462/2/6
f 457/1/6 458/1/6 463/1/6
f 462/2/6 457/2/6 463/2/6
f 458/3/6 459/3/6 464/3/6
f 463/1/6 458/1/6 464/1/6
f 464/3/6 459/3/6 465/3/6
f 462/1/6 463/1/6 466/1/6
f 463/1/6 464/1/6 466/1/6
f 466/1/6 464/1/6 467/1/6
f 464/2/6 465/2/6 468/2/6
f 467/1/6 464/1/6 468/1/6
f 468/2/6 465/2/6 469/2/6
f 460/1/6 461/1/6 470/1/6
f 461/2/6 455/2/6 471/2/6
f 470/1/6 461/1/6 471/1/6
f 471/2/6 455/2/6 472/2/6
f 466/1/6 467/1/6 473/1/6
f 473/1/6 467/1/6 474/1/6
f 471/2/6 472/2/6 476/2/6
f 470/2/6 471/2/6 476/2/6
f 476/2/6 472/2/6 477/2/6
f 474/1/6 475/1/6 478/1/6
f 473/1/6 474/1/6 478/1/6
f 478/1/6 475/1/6 479/1/6
f 479/2/6 480/2/6 483/2/6
f 478/1/6 479/1/6 483/1/6
f 483/2/6 480/2/6 484/2/6
f 481/1/6 482/1/6 486/1/6
f 486/1/6 482/1/6 487/1/6
f 478/1/6 483/1/6 493/1/6
f 493/1/6 483/1/6 494/1/6
f 494/1/6 483/1/6 495/1/6
f 487/3/6 488/3/6 496/3/6
f 491/1/6 492/1/6 497/1/6
f 496/3/6 488/3/6 497/3/6
f 488/1/6 489/1/6 497/1/6
f 493/1/6 494/1/6 497/1/6
f 492/1/6 493/1/6 497/1/6
f 489/1/6 490/1/6 497/1/6
f 490/1/6 491/1/6 497/1/6
f 497/1/6 494/1/6 498/1/6
f 498/1/6 494/1/6 499/1/6
f 499/1/6 494/1/6 500/1/6
f 494/3/6 495/3/6 501/3/6
f 500/1/6 494/1/6 501/1/6
f 501/3/6 495/3/6 502/3/6
f 485/1/6 486/1/6 503/1/6
f 503/1/6 486/1/6 504/1/6
f 497/2/6 498/2/6 505/2/6
f 498/1/6 499/1/6 506/1/6
f 505/2/6 498/2/6 506/2/6
f 506/1/6 499/1/6 507/1/6
f 499/2/6 500/2/6 508/2/6
f 500/1/6 501/1/6 508/1/6
f 508/1/6 501/1/6 509/1/6
f 504/1/6 505/1/6 510/1/6
f 510/1/6 505/1/6 511/1/6
f 511/1/6 505/1/6 512/1/6
f 507/1/6 499/1/6 513/1/6
f 499/2/6 508/2/6 514/2/6
f 513/1/6 499/1/6 514/1/6
f 514/2/6 508/2/6 515/2/6
f 510/2/6 511/2/6 516/2/6
f 516/2/6 511/2/6 517/2/6
f 518/1/6 519/1/6 523/1/6
f 519/2/6 520/2/6 524/2/6
f 523/1/6 519/1/6 524/1/6
f 520/1/6 521/1/6 525/1/6
f 524/2/6 520/2/6 525/2/6
f 525/1/6 521/1/6 526/1/6
f 526/1/6 521/1/6 527/1/6
f 521/2/6 522/2/6 528/2/6
f 527/1/6 521/1/6 528/1/6
f 528/2/6 522/2/6 529/2/6
f 523/3/6 524/3/6 531/3/6
f 524/3/6 525/3/6 531/3/6
f 531/3/6 525/3/6 532/3/6
f 525/1/6 526/1/6 533/1/6
f 532/3/6 525/3/6 533/3/6
f 526/2/6 527/2/6 534/2/6
f 533/1/6 526/1/6 534/1/6
f 529/1/6 530/1/6 535/1/6
f 534/2/6 527/2/6 535/2/6
f 528/1/6 529/1/6 535/1/6
f 527/1/6 528/1/6 535/1/6
f 535/1/6 530/1/6 536/1/6
f 532/2/6 533/2/6 537/2/6
f 531/1/6 532/1/6 537/1/6
f 533/1/6 534/1/6 538/1/6
f 537/2/6 533/2/6 538/2/6
f 534/1/6 535/1/6 538/1/6
f 535/2/6 536/2/6 539/2/6
f 538/1/6 535/1/6 539/1/6
f 536/1/6 530/1/6 540/1/6
f 539/2/6 536/2/6 540/2/6
f 531/1/6 537/1/6 541/1/6
f 537/3/6 538/3/6 541/3/6
f 538/1/6 539/1/6 542/1/6
f 541/3/6 538/3/6 542/3/6
f 542/1/6 539/1/6 543/1/6
f 539/3/6 540/3/6 544/3/6
f 543/1/6 539/1/6 544/1/6
f 540/1/6 530/1/6 545/1/6
f 544/3/6 540/3/6 545/3/6
f 545/1/6 530/1/6 546/1/6
f 546/1/6 530/1/6 547/1/6
f 531/1/6 541/1/6 548/1/6
f 542/1/6 543/1/6 548/1/6
f 541/1/6 542/1/6 548/1/6
f 548/1/6 543/1/6 549/1/6
f 543/2/6 544/2/6 550/2/6
f 549/1/6 543/1/6 550/1/6
f 545/1/6 546/1/6 551/1/6
f 550/2/6 544/2/6 551/2/6
f 544/1/6 545/1/6 551/1/6
f 551/1/6 546/1/6 552/1/6
f 546/3/6 547/3/6 553/3/6
f 552/1/6 546/1/6 553/1/6
f 553/3/6 547/3/6 554/3/6
f 548/3/6 549/3/6 555/3/6
f 549/1/6 550/1/6 556/1/6
f 555/3/6 549/3/6 556/3/6
f 550/1/6 551/1/6 556/1/6
f 551/2/6 552/2/6 557/2/6
f 556/1/6 551/1/6 557/1/6
f 553/1/6 554/1/6 558/1/6
f 557/2/6 552/2/6 558/2/6
f 552/1/6 553/1/6 558/1/6
f 558/1/6 554/1/6 559/1/6
f 555/2/6 556/2/6 560/2/6
f 556/1/6 557/1/6 561/1/6
f 560/2/6 556/2/6 561/2/6
f 557/1/6 558/1/6 561/1/6
f 561/1/6 558/1/6 562/1/6
f 562/1/6 558/1/6 563/1/6
f 563/1/6 558/1/6 564/1/6
f 558/2/6 559/2/6 565/2/6
f 564/1/6 558/1/6 565/1/6
f 565/2/6 559/2/6 566/2/6
f 560/1/6 561/1/6 568/1/6
f 568/1/6 561/1/6 569/1/6
f 562/1/6 563/1/6 570/1/6
f 563/2/6 564/2/6 571/2/6
f 570/1/6 563/1/6 571/1/6
f 564/1/6 565/1/6 572/1/6
f 571/2/6 564/2/6 572/2/6
f 565/3/6 566/3/6 573/3/6
f 572/1/6 565/1/6 573/1/6
f 566/2/6 559/2/6 574/2/6
f 573/3/6 566/3/6 574/3/6
f 574/2/6 559/2/6 575/2/6
f 567/1/6 568/1/6 576/1/6
f 567/1/6 576/1/6 578/1/6
f 576/1/6 577/1/6 578/1/6
f 578/1/6 577/1/6 579/1/6
f 580/1/6 581/1/6 582/1/6
f 582/1/6 581/1/6 583/1/6
f 584/1/6 585/1/6 586/1/6
f 586/1/6 585/1/6 587/1/6
